<svg width="72" height="72" viewBox="0 0 72 72" fill="none" xmlns="http://www.w3.org/2000/svg">
<path d="M57.865 18.159C56.962 11.299 51.106 6 44 6C37.651 6 32.297 10.229 30.582 16.021C23.598 16.244 18 21.961 18 29C18 36.18 23.82 42 31 42H56C62.627 42 68 36.627 68 30C68 24.009 63.604 19.057 57.865 18.159Z" fill="url(#paint0_linear_6688_280999)"/>
<path d="M34 32H7C5.343 32 4 33.343 4 35V61C4 62.657 5.343 64 7 64H41C42.657 64 44 62.657 44 61V42H34V32Z" fill="url(#paint1_linear_6688_280999)"/>
<path d="M11.633 38.176L10.219 39.59C9.82803 39.981 9.82803 40.614 10.219 41.004L20.043 50.828L22.164 48.707C22.555 48.316 22.555 47.683 22.164 47.293L13.047 38.176C12.656 37.785 12.023 37.785 11.633 38.176Z" fill="#F2F2F2"/>
<path d="M11.633 57.824L10.219 56.41C9.82803 56.019 9.82803 55.386 10.219 54.996L20.043 45.172L22.164 47.293C22.555 47.684 22.555 48.317 22.164 48.707L13.047 57.824C12.656 58.215 12.023 58.215 11.633 57.824Z" fill="#E6E6E6"/>
<path d="M37 54H25C24.4477 54 24 54.4477 24 55V57C24 57.5523 24.4477 58 25 58H37C37.5523 58 38 57.5523 38 57V55C38 54.4477 37.5523 54 37 54Z" fill="#F2F2F2"/>
<path d="M40 15H48V23H40V15Z" fill="#C3F1FF"/>
<path d="M44 32H40V36H44V32Z" fill="#C3F1FF"/>
<path d="M34 23H40V29H34V23Z" fill="#C3F1FF"/>
<defs>
<linearGradient id="paint0_linear_6688_280999" x1="42.9653" y1="0.324738" x2="42.9653" y2="49.8444" gradientUnits="userSpaceOnUse">
<stop offset="0.18" stop-color="#5EA0EF"/>
<stop offset="1" stop-color="#0078D4"/>
</linearGradient>
<linearGradient id="paint1_linear_6688_280999" x1="24" y1="64" x2="24" y2="32" gradientUnits="userSpaceOnUse">
<stop stop-color="#32BEDD"/>
<stop offset="0.175" stop-color="#32CAEA"/>
<stop offset="0.41" stop-color="#32D2F2"/>
<stop offset="0.775" stop-color="#32D4F5"/>
</linearGradient>
</defs>
</svg>
